<svg width="22" height="22" viewBox="0 0 22 22" fill="none" xmlns="http://www.w3.org/2000/svg">
<g clip-path="url(#clip0_4_302)">
<path d="M18.135 2.98315C14.222 -0.966447 7.84808 -0.996139 3.89848 2.9169C-0.0511261 6.82993 -0.0808176 13.2038 3.83222 17.1534C3.86273 17.1842 3.89341 17.2147 3.9243 17.2451L7.53282 20.5773C9.46151 22.4652 12.5431 22.4733 14.4817 20.5956L18.135 17.2195C22.0661 13.2882 22.0661 6.91449 18.135 2.98315ZM16.5078 12.3893C16.5078 13.6529 15.4835 14.6772 14.2199 14.6772H7.81375C6.55016 14.6772 5.52583 13.6529 5.52583 12.3893V9.30334C5.52583 8.40332 5.96691 7.56044 6.7064 7.04744L9.45189 5.14298C10.3937 4.49217 11.6399 4.49217 12.5818 5.14298L15.3273 7.04744C16.0668 7.56044 16.5078 8.40332 16.5078 9.30334V12.3893ZM14.6775 9.3033V12.3892C14.6775 12.6419 14.4726 12.8468 14.2199 12.8468H12.8471V11.0165C12.8471 10.511 12.4374 10.1013 11.932 10.1013H10.1017C9.59622 10.1013 9.18651 10.5111 9.18651 11.0165V12.8468H7.81375C7.56105 12.8468 7.35617 12.6419 7.35617 12.3892V9.3033C7.35609 9.00321 7.50312 8.7221 7.74968 8.55104L10.4952 6.64658C10.8094 6.43054 11.2243 6.43054 11.5384 6.64658L14.2839 8.55104C14.5305 8.7221 14.6776 9.00321 14.6775 9.3033Z" fill="black"/>
</g>
<defs>
<clipPath id="clip0_4_302">
<rect width="22" height="22" fill="white"/>
</clipPath>
</defs>
</svg>
