<svg width="22" height="18" viewBox="0 0 22 18" fill="none" xmlns="http://www.w3.org/2000/svg">
<g clip-path="url(#clip0_4_267)">
<path d="M3.66668 5.25C3.24517 5.25097 2.82761 5.18353 2.43818 5.05157C2.04875 4.91962 1.69517 4.72577 1.39793 4.48125L-0.0559082 3.2925L1.88926 1.701L3.34218 2.88975C3.42813 2.96006 3.54468 2.99955 3.66622 2.99955C3.78775 2.99955 3.90431 2.96006 3.99026 2.88975L7.27743 0.201004L9.22259 1.79175L5.93543 4.48125C5.63818 4.72577 5.2846 4.91962 4.89517 5.05157C4.50574 5.18353 4.08818 5.25097 3.66668 5.25ZM22 1.5H11V3.75H22V1.5ZM5.93543 10.4813L9.22259 7.79175L7.27743 6.201L3.99026 8.8905C3.90431 8.96081 3.78775 9.0003 3.66622 9.0003C3.54468 9.0003 3.42813 8.96081 3.34218 8.8905L1.88926 7.701L-0.0559082 9.2925L1.39793 10.4813C1.69585 10.725 2.04955 10.9184 2.43882 11.0504C2.8281 11.1823 3.24532 11.2502 3.66668 11.2502C4.08803 11.2502 4.50525 11.1823 4.89453 11.0504C5.2838 10.9184 5.6375 10.725 5.93543 10.4813ZM22 7.5H11V9.75H22V7.5ZM5.93543 16.4813L9.22259 13.7918L7.27743 12.201L3.99026 14.8905C3.90431 14.9608 3.78775 15.0003 3.66622 15.0003C3.54468 15.0003 3.42813 14.9608 3.34218 14.8905L1.88926 13.701L-0.0559082 15.2925L1.39793 16.4813C1.69585 16.725 2.04955 16.9184 2.43882 17.0504C2.8281 17.1823 3.24532 17.2502 3.66668 17.2502C4.08803 17.2502 4.50525 17.1823 4.89453 17.0504C5.2838 16.9184 5.6375 16.725 5.93543 16.4813ZM22 13.5H11V15.75H22V13.5Z" fill="black"/>
</g>
<defs>
<clipPath id="clip0_4_267">
<rect width="22" height="18" fill="white"/>
</clipPath>
</defs>
</svg>
