<svg width="25" height="21" viewBox="0 0 25 21" fill="none" xmlns="http://www.w3.org/2000/svg">
<g clip-path="url(#clip0_4_256)">
<path d="M23.9335 6.92753L15.9087 13.6427C15.0139 14.3896 13.7979 14.8136 12.5274 14.8216C11.2569 14.8297 10.0357 14.4212 9.13147 13.6857L1.02217 7.07266C1.00955 7.19782 0.979598 7.31122 0.980385 7.43551L1.04056 16.9353C1.04873 17.9847 1.56042 18.9876 2.46338 19.7239C3.36634 20.4603 4.58686 20.87 5.8572 20.8632L19.2736 20.7782C20.5439 20.7689 21.7592 20.3438 22.6527 19.5961C23.5463 18.8483 24.0452 17.8391 24.0401 16.7896L23.9799 7.28983C23.9791 7.16554 23.9478 7.05252 23.9335 6.92753Z" fill="black"/>
<path d="M14.5363 10.9194L23.2437 3.63221C22.816 3.05408 22.2149 2.57711 21.4984 2.24732C20.7819 1.91752 19.9741 1.74603 19.1531 1.74938L5.73667 1.83436C4.91561 1.84142 4.1101 2.02313 3.39782 2.36198C2.68554 2.70082 2.09053 3.18536 1.67017 3.76887L10.4692 10.9452C11.0121 11.3861 11.7449 11.631 12.5072 11.6261C13.2694 11.6213 13.999 11.3672 14.5363 10.9194Z" fill="black"/>
</g>
<defs>
<clipPath id="clip0_4_256">
<rect width="23" height="19" fill="white" transform="translate(0.940063 1.07306) rotate(-0.362929)"/>
</clipPath>
</defs>
</svg>
