<svg width="25" height="21" viewBox="0 0 25 21" fill="none" xmlns="http://www.w3.org/2000/svg">
<g clip-path="url(#clip0_4_262)">
<path d="M23.0115 17.1297H19.8792V13.0094C19.8792 12.0267 19.8583 10.7624 18.25 10.7624C16.6188 10.7624 16.3688 11.8325 16.3688 12.9385V17.1297H13.2375V8.65624H16.2448V9.81387H16.2865C16.9 8.93362 18.0396 8.40774 19.2531 8.44537C22.4281 8.44537 23.0125 10.1997 23.0125 12.4809L23.0115 17.1297ZM9.70312 7.49774C8.69896 7.49774 7.88542 6.81437 7.88542 5.97087C7.88542 5.12737 8.69896 4.44399 9.70312 4.44399C10.7073 4.44399 11.5208 5.12737 11.5208 5.97087C11.5208 6.81437 10.7073 7.49774 9.70312 7.49774ZM11.2688 17.1297H8.13333V8.65624H11.2688V17.1297ZM24.5729 2.00099H6.55938C5.70833 1.99312 5.01042 2.56624 5 3.28112V18.4746C5.01042 19.1904 5.70833 19.7635 6.55938 19.7556H24.5729C25.426 19.7644 26.1271 19.1912 26.1385 18.4746V3.28024C26.126 2.56362 25.425 1.99049 24.5729 2.00012" fill="black"/>
</g>
<defs>
<clipPath id="clip0_4_262">
<rect width="25" height="21" fill="white"/>
</clipPath>
</defs>
</svg>
