<svg width="9" height="10" viewBox="0 0 9 10" fill="none" xmlns="http://www.w3.org/2000/svg">
<g clip-path="url(#clip0_4_272)">
<path d="M8.62499 4.58333C8.52553 4.58333 8.43015 4.53944 8.35982 4.4613C8.2895 4.38316 8.24999 4.27717 8.24999 4.16667C8.24919 3.28288 7.93287 2.43555 7.37043 1.81062C6.80799 1.18569 6.04539 0.834217 5.24999 0.833334C5.15053 0.833334 5.05515 0.789435 4.98482 0.711295C4.9145 0.633155 4.87499 0.527174 4.87499 0.416667C4.87499 0.306161 4.9145 0.20018 4.98482 0.12204C5.05515 0.0438995 5.15053 7.72066e-07 5.24999 7.72066e-07C6.24422 0.00121394 7.19741 0.44059 7.90043 1.22173C8.60346 2.00287 8.9989 3.06197 8.99999 4.16667C8.99999 4.27717 8.96048 4.38316 8.89015 4.4613C8.81983 4.53944 8.72445 4.58333 8.62499 4.58333ZM7.49999 4.16667C7.49999 3.50363 7.26294 2.86774 6.84098 2.3989C6.41902 1.93006 5.84673 1.66667 5.24999 1.66667C5.15053 1.66667 5.05515 1.71057 4.98482 1.78871C4.9145 1.86685 4.87499 1.97283 4.87499 2.08333C4.87499 2.19384 4.9145 2.29982 4.98482 2.37796C5.05515 2.4561 5.15053 2.5 5.24999 2.5C5.64781 2.5 6.02934 2.6756 6.31065 2.98816C6.59195 3.30072 6.74999 3.72464 6.74999 4.16667C6.74999 4.27717 6.7895 4.38316 6.85982 4.4613C6.93015 4.53944 7.02553 4.58333 7.12499 4.58333C7.22444 4.58333 7.31983 4.53944 7.39015 4.4613C7.46048 4.38316 7.49999 4.27717 7.49999 4.16667ZM8.31861 9.235L8.65986 8.79792C8.87707 8.5558 8.99903 8.22789 8.99903 7.88604C8.99903 7.54419 8.87707 7.21628 8.65986 6.97417C8.64824 6.96125 7.74599 6.19 7.74599 6.19C7.52945 5.96097 7.24181 5.83344 6.94285 5.83391C6.64389 5.83437 6.35658 5.9628 6.14061 6.1925L5.42586 6.86167C4.84243 6.59337 4.31245 6.19966 3.86635 5.70313C3.42025 5.20661 3.06682 4.61706 2.82636 3.96833L3.42636 3.17667C3.63326 2.93674 3.74898 2.61745 3.74946 2.28517C3.74995 1.95289 3.63517 1.63318 3.42899 1.3925C3.42899 1.3925 2.73411 0.391251 2.72249 0.378334C2.50853 0.139063 2.21844 0.00292661 1.9149 -0.000659735C1.61135 -0.00424608 1.31872 0.125005 1.10024 0.359167L0.668989 0.775834C-1.87876 4.06 3.60749 10.1088 6.66074 10C6.96906 10.002 7.27461 9.93532 7.55935 9.80392C7.8441 9.67253 8.10227 9.47908 8.31861 9.235Z" fill="#FFFBFB"/>
</g>
<defs>
<clipPath id="clip0_4_272">
<rect width="9" height="10" fill="white"/>
</clipPath>
</defs>
</svg>
