<svg width="25" height="18" viewBox="0 0 25 18" fill="none" xmlns="http://www.w3.org/2000/svg">
<path d="M24.4771 2.75C24.1896 1.66771 23.3427 0.814583 22.2667 0.525C20.3177 1.86265e-07 12.5 0 12.5 0C12.5 0 4.68229 1.86265e-07 2.73229 0.525C1.65729 0.814583 0.810417 1.66667 0.522917 2.75C0 4.7125 0 8.80625 0 8.80625C0 8.80625 0 12.9 0.522917 14.8625C0.810417 15.9448 1.65729 16.7979 2.73333 17.0875C4.68229 17.6125 12.5 17.6125 12.5 17.6125C12.5 17.6125 20.3177 17.6125 22.2677 17.0875C23.3427 16.7979 24.1896 15.9458 24.4781 14.8625C25 12.9 25 8.80625 25 8.80625C25 8.80625 25 4.7125 24.4771 2.75ZM9.94375 12.524V5.08854L16.4771 8.80625L9.94375 12.524Z" fill="black"/>
</svg>
