<svg width="37" height="33" viewBox="0 0 37 33" fill="none" xmlns="http://www.w3.org/2000/svg">
<path d="M0 10C0 4.47715 4.47715 0 10 0H37V33H10C4.47715 33 0 28.5228 0 23V10Z" fill="#002333"/>
<path d="M25.4167 13V12.125C25.4167 10.5005 24.7406 8.94263 23.5373 7.79397C22.3339 6.64531 20.7018 6 19 6C17.2982 6 15.6661 6.64531 14.4627 7.79397C13.2594 8.94263 12.5833 10.5005 12.5833 12.125V13H9.83334V24.375C9.83334 25.0712 10.1231 25.7389 10.6388 26.2312C11.1545 26.7234 11.854 27 12.5833 27H25.4167C26.146 27 26.8455 26.7234 27.3612 26.2312C27.8769 25.7389 28.1667 25.0712 28.1667 24.375V13H25.4167ZM19.9167 21.75H18.0833V18.25H19.9167V21.75ZM23.5833 13H14.4167V12.125C14.4167 10.9647 14.8996 9.85188 15.7591 9.03141C16.6186 8.21094 17.7844 7.75 19 7.75C20.2156 7.75 21.3814 8.21094 22.2409 9.03141C23.1005 9.85188 23.5833 10.9647 23.5833 12.125V13Z" fill="#FFFEFE"/>
</svg>
