<svg width="36" height="33" viewBox="0 0 36 33" fill="none" xmlns="http://www.w3.org/2000/svg">
<path d="M0 10C0 4.47715 4.47715 0 10 0H36V33H10C4.47715 33 0 28.5228 0 23V10Z" fill="#002333"/>
<path d="M18 16.5C21.0376 16.5 23.5 14.1495 23.5 11.25C23.5 8.3505 21.0376 6 18 6C14.9624 6 12.5 8.3505 12.5 11.25C12.5 14.1495 14.9624 16.5 18 16.5Z" fill="white"/>
<path d="M18 18.25C13.4457 18.2549 9.75507 21.7778 9.75 26.125C9.75 26.6083 10.1604 27 10.6667 27H25.3333C25.8396 27 26.25 26.6083 26.25 26.125C26.2449 21.7778 22.5543 18.2548 18 18.25Z" fill="white"/>
</svg>
