<svg width="41" height="36" viewBox="0 0 41 36" fill="none" xmlns="http://www.w3.org/2000/svg">
<g clip-path="url(#clip0_4_203)">
<path d="M39.2916 16.5H35.875V13.5C35.875 13.1022 35.695 12.7206 35.3746 12.4393C35.0542 12.158 34.6197 12 34.1666 12C33.7136 12 33.279 12.158 32.9587 12.4393C32.6383 12.7206 32.4583 13.1022 32.4583 13.5V16.5H29.0416C28.5886 16.5 28.154 16.658 27.8337 16.9393C27.5133 17.2206 27.3333 17.6022 27.3333 18C27.3333 18.3978 27.5133 18.7794 27.8337 19.0607C28.154 19.342 28.5886 19.5 29.0416 19.5H32.4583V22.5C32.4583 22.8978 32.6383 23.2794 32.9587 23.5607C33.279 23.842 33.7136 24 34.1666 24C34.6197 24 35.0542 23.842 35.3746 23.5607C35.695 23.2794 35.875 22.8978 35.875 22.5V19.5H39.2916C39.7447 19.5 40.1792 19.342 40.4996 19.0607C40.82 18.7794 41 18.3978 41 18C41 17.6022 40.82 17.2206 40.4996 16.9393C40.1792 16.658 39.7447 16.5 39.2916 16.5Z" fill="#FFFEFE"/>
<path d="M15.375 18C17.4023 18 19.384 17.4722 21.0696 16.4832C22.7552 15.4943 24.069 14.0887 24.8448 12.4442C25.6206 10.7996 25.8235 8.99002 25.4281 7.24419C25.0326 5.49836 24.0563 3.89472 22.6228 2.63604C21.1894 1.37737 19.363 0.520204 17.3747 0.172937C15.3864 -0.17433 13.3254 0.00389957 11.4525 0.685088C9.57955 1.36628 7.97872 2.51983 6.85244 3.99987C5.72615 5.47991 5.125 7.21997 5.125 9C5.12771 11.3862 6.20849 13.674 8.13015 15.3613C10.0518 17.0486 12.6574 17.9976 15.375 18ZM15.375 3C16.7265 3 18.0477 3.3519 19.1714 4.01119C20.2951 4.67047 21.171 5.60755 21.6882 6.7039C22.2054 7.80026 22.3407 9.00666 22.077 10.1705C21.8134 11.3344 21.1626 12.4035 20.2069 13.2426C19.2512 14.0818 18.0337 14.6532 16.7081 14.8847C15.3826 15.1162 14.0086 14.9974 12.76 14.5433C11.5114 14.0892 10.4441 13.3201 9.69329 12.3334C8.94243 11.3467 8.54167 10.1867 8.54167 9C8.54167 7.40871 9.26161 5.88258 10.5431 4.75736C11.8246 3.63215 13.5627 3 15.375 3Z" fill="#FFFEFE"/>
<path d="M15.375 21C11.2987 21.004 7.39062 22.4276 4.50823 24.9584C1.62584 27.4893 0.00452171 30.9208 0 34.5C0 34.8978 0.179985 35.2794 0.500359 35.5607C0.820734 35.842 1.25526 36 1.70833 36C2.16141 36 2.59593 35.842 2.91631 35.5607C3.23668 35.2794 3.41667 34.8978 3.41667 34.5C3.41667 31.7152 4.67656 29.0445 6.91918 27.0754C9.1618 25.1062 12.2035 24 15.375 24C18.5465 24 21.5882 25.1062 23.8308 27.0754C26.0734 29.0445 27.3333 31.7152 27.3333 34.5C27.3333 34.8978 27.5133 35.2794 27.8337 35.5607C28.1541 35.842 28.5886 36 29.0417 36C29.4947 36 29.9293 35.842 30.2496 35.5607C30.57 35.2794 30.75 34.8978 30.75 34.5C30.7455 30.9208 29.1242 27.4893 26.2418 24.9584C23.3594 22.4276 19.4513 21.004 15.375 21Z" fill="#FFFEFE"/>
</g>
<defs>
<clipPath id="clip0_4_203">
<rect width="41" height="36" fill="white"/>
</clipPath>
</defs>
</svg>
