<svg width="20" height="20" viewBox="0 0 49 48" fill="none" xmlns="http://www.w3.org/2000/svg">
<g style="mix-blend-mode:lighten" clip-path="url(#clip0_2_6)">
<path d="M24.5 23.9999C26.9228 23.9999 29.2912 23.2962 31.3057 21.9776C33.3202 20.659 34.8904 18.7849 35.8175 16.5921C36.7447 14.3994 36.9873 11.9866 36.5146 9.65886C36.042 7.33109 34.8753 5.19289 33.1621 3.51466C31.4489 1.83643 29.2661 0.693544 26.8899 0.230521C24.5136 -0.232502 22.0505 0.0051384 19.8121 0.91339C17.5737 1.82164 15.6605 3.35971 14.3145 5.3331C12.9684 7.30649 12.25 9.62657 12.25 11.9999C12.2532 15.1816 13.5449 18.232 15.8415 20.4817C18.1381 22.7315 21.2521 23.9968 24.5 23.9999ZM24.5 3.99994C26.1152 3.99994 27.6942 4.46914 29.0372 5.34819C30.3802 6.22724 31.4269 7.47667 32.045 8.93848C32.6631 10.4003 32.8249 12.0088 32.5097 13.5607C32.1946 15.1125 31.4168 16.538 30.2747 17.6568C29.1326 18.7756 27.6774 19.5375 26.0932 19.8462C24.5091 20.1549 22.867 19.9965 21.3748 19.391C19.8825 18.7855 18.607 17.7601 17.7097 16.4445C16.8123 15.1289 16.3333 13.5822 16.3333 11.9999C16.3333 9.87821 17.1937 7.84338 18.7253 6.34309C20.2568 4.8428 22.3341 3.99994 24.5 3.99994Z" fill="#FEFEFE"/>
<path d="M24.5 27.9999C19.6283 28.0052 14.9577 29.9034 11.5129 33.2779C8.06807 36.6524 6.1304 41.2277 6.125 45.9999C6.125 46.5304 6.3401 47.0391 6.72299 47.4142C7.10588 47.7892 7.62518 47.9999 8.16667 47.9999C8.70815 47.9999 9.22746 47.7892 9.61034 47.4142C9.99323 47.0391 10.2083 46.5304 10.2083 45.9999C10.2083 42.2869 11.7141 38.726 14.3943 36.1004C17.0745 33.4749 20.7096 31.9999 24.5 31.9999C28.2904 31.9999 31.9255 33.4749 34.6057 36.1004C37.2859 38.726 38.7917 42.2869 38.7917 45.9999C38.7917 46.5304 39.0068 47.0391 39.3897 47.4142C39.7725 47.7892 40.2919 47.9999 40.8333 47.9999C41.3748 47.9999 41.8941 47.7892 42.277 47.4142C42.6599 47.0391 42.875 46.5304 42.875 45.9999C42.8696 41.2277 40.9319 36.6524 37.4871 33.2779C34.0423 29.9034 29.3717 28.0052 24.5 27.9999Z" fill="#FEFEFE"/>
</g>
<defs>
<clipPath id="clip0_2_6">
<rect width="49" height="48" fill="white"/>
</clipPath>
</defs>
</svg>
