<svg width="13" height="14" viewBox="0 0 13 14" fill="none" xmlns="http://www.w3.org/2000/svg">
<path d="M10.875 4.66667V4.08333C10.875 3.00037 10.4141 1.96175 9.59359 1.19598C8.77312 0.430207 7.66032 0 6.5 0C5.33968 0 4.22688 0.430207 3.40641 1.19598C2.58594 1.96175 2.125 3.00037 2.125 4.08333V4.66667H0.25V12.25C0.25 12.7141 0.447544 13.1592 0.799175 13.4874C1.15081 13.8156 1.62772 14 2.125 14H10.875C11.3723 14 11.8492 13.8156 12.2008 13.4874C12.5525 13.1592 12.75 12.7141 12.75 12.25V4.66667H10.875ZM7.125 10.5H5.875V8.16667H7.125V10.5ZM9.625 4.66667H3.375V4.08333C3.375 3.30979 3.70424 2.56792 4.29029 2.02094C4.87634 1.47396 5.6712 1.16667 6.5 1.16667C7.3288 1.16667 8.12366 1.47396 8.70971 2.02094C9.29576 2.56792 9.625 3.30979 9.625 4.08333V4.66667Z" fill="#100202"/>
</svg>
