<svg width="16" height="13" viewBox="0 0 16 13" fill="none" xmlns="http://www.w3.org/2000/svg">
<g clip-path="url(#clip0_4_184)">
<path d="M12.6667 0.541672H3.33333C2.4496 0.542532 1.60237 0.828149 0.97748 1.33587C0.352588 1.8436 0.00105857 2.53197 0 3.25001L0 9.75001C0.00105857 10.468 0.352588 11.1564 0.97748 11.6641C1.60237 12.1719 2.4496 12.4575 3.33333 12.4583H12.6667C13.5504 12.4575 14.3976 12.1719 15.0225 11.6641C15.6474 11.1564 15.9989 10.468 16 9.75001V3.25001C15.9989 2.53197 15.6474 1.8436 15.0225 1.33587C14.3976 0.828149 13.5504 0.542532 12.6667 0.541672ZM3.33333 1.62501H12.6667C13.0659 1.62564 13.4557 1.72333 13.786 1.90548C14.1163 2.08764 14.3719 2.34593 14.52 2.64713L9.41467 6.79575C9.03895 7.0998 8.53028 7.27051 8 7.27051C7.46972 7.27051 6.96105 7.0998 6.58533 6.79575L1.48 2.64713C1.6281 2.34593 1.88374 2.08764 2.21403 1.90548C2.54432 1.72333 2.93414 1.62564 3.33333 1.62501ZM12.6667 11.375H3.33333C2.8029 11.375 2.29419 11.2038 1.91912 10.8991C1.54405 10.5943 1.33333 10.181 1.33333 9.75001V4.06251L5.64267 7.56167C6.26842 8.06881 7.11617 8.35361 8 8.35361C8.88383 8.35361 9.73158 8.06881 10.3573 7.56167L14.6667 4.06251V9.75001C14.6667 10.181 14.456 10.5943 14.0809 10.8991C13.7058 11.2038 13.1971 11.375 12.6667 11.375Z" fill="black"/>
</g>
<defs>
<clipPath id="clip0_4_184">
<rect width="16" height="13" fill="white"/>
</clipPath>
</defs>
</svg>
